<svg xmlns="http://www.w3.org/2000/svg" xml:space="preserve" width="800" height="800" fill="#2a8000" viewBox="0 0 96 96"><path d="M18 84h2v2h-2zM6 82h2v2H6zm24-3h2v2h-2zm33 0h2v2h-2zm15 2h2v2h-2zm8 4h2v2h-2z"/><path d="m94 91-18.739-1.972-2.707 1.805a.958.958 0 0 1-.107.062l-2 1-.895-1.789 1.944-.972 1.616-1.077L69 86h-6.586l-3.707 3.707A.997.997 0 0 1 58 90h-2v-2h1.586l3.073-3.073L57 82h-7v-8.025C67.209 73.445 81 59.338 81 42c-17.338 0-31.445 13.791-31.975 31h-1.051C47.445 55.791 33.338 42 16 42c0 17.338 13.791 31.445 31 31.975V82h-8l-3.499 2.799 2.053 1.369c.145.097.262.229.34.385L38.618 88H42v2h-4c-.379 0-.725-.214-.895-.553l-.881-1.763L33.697 86H27l-5.091 2.182L24.6 90.2l-1.2 1.6-3.69-2.768L2 91l-.03 3H94v-3zM77.293 44.293l1.414 1.414-25 25-1.414-1.414 25-25zm-32.984 26.43-23-22 1.383-1.445 23 22-1.383 1.445z"/><path d="M33 11.899V19a1 1 0 0 0 .4.8l7.6 5.7V48h2V25a1 1 0 0 0-.4-.8L35 18.5v-6.601a5 5 0 1 0-2 0zM34 6a1 1 0 1 1 0 2 1 1 0 0 1 0-2zm22 18.535 5.555-3.703c.278-.186.445-.498.445-.832v-8.101a5 5 0 1 0-2 0v7.566l-5.555 3.703A1.001 1.001 0 0 0 54 24v24h2V24.535zM61 6a1 1 0 1 1 0 2 1 1 0 0 1 0-2zm9 18.899V29h-8a1 1 0 0 0-1 1v12h2V31h8a1 1 0 0 0 1-1v-5.101a5 5 0 1 0-2 0zM71 19a1 1 0 1 1 0 2 1 1 0 0 1 0-2zm-47 4.899V30a1 1 0 0 0 1 1h8v10h2V30a1 1 0 0 0-1-1h-8v-5.101a5 5 0 1 0-2 0zM25 18a1 1 0 1 1 0 2 1 1 0 0 1 0-2zm22.5 2.899V51h2V20.899a5 5 0 1 0-2 0zm1-5.899a1 1 0 1 1 0 2 1 1 0 0 1 0-2z"/></svg>